<mxfile host="app.diagrams.net" modified="2024-03-30T17:03:25.982Z" agent="Mozilla/5.0 (Windows NT 10.0; Win64; x64) AppleWebKit/537.36 (KHTML, like Gecko) Chrome/120.0.0.0 YaBrowser/24.1.0.0 Safari/537.36" etag="fjM3ZufCo6YjoRIl971t" version="24.2.1" type="device">
  <diagram name="Страница — 1" id="PsaHPdf3RDhp_nssHXkJ">
    <mxGraphModel dx="1674" dy="841" grid="1" gridSize="10" guides="1" tooltips="1" connect="1" arrows="1" fold="1" page="1" pageScale="1" pageWidth="827" pageHeight="1169" math="0" shadow="0">
      <root>
        <mxCell id="0" />
        <mxCell id="1" parent="0" />
        <mxCell id="VqD7DIqnFLghqxYBGj-M-10" style="edgeStyle=orthogonalEdgeStyle;rounded=0;orthogonalLoop=1;jettySize=auto;html=1;entryX=0.5;entryY=0;entryDx=0;entryDy=0;" parent="1" source="VqD7DIqnFLghqxYBGj-M-1" target="VqD7DIqnFLghqxYBGj-M-3" edge="1">
          <mxGeometry relative="1" as="geometry" />
        </mxCell>
        <mxCell id="VqD7DIqnFLghqxYBGj-M-14" style="edgeStyle=orthogonalEdgeStyle;rounded=0;orthogonalLoop=1;jettySize=auto;html=1;entryX=0.5;entryY=0;entryDx=0;entryDy=0;" parent="1" source="VqD7DIqnFLghqxYBGj-M-1" target="VqD7DIqnFLghqxYBGj-M-5" edge="1">
          <mxGeometry relative="1" as="geometry">
            <Array as="points">
              <mxPoint x="330" y="210" />
            </Array>
          </mxGeometry>
        </mxCell>
        <mxCell id="VqD7DIqnFLghqxYBGj-M-1" value="Domestic&lt;br&gt;animals" style="rounded=1;whiteSpace=wrap;html=1;" parent="1" vertex="1">
          <mxGeometry x="160" y="180" width="120" height="60" as="geometry" />
        </mxCell>
        <mxCell id="VqD7DIqnFLghqxYBGj-M-15" style="edgeStyle=orthogonalEdgeStyle;rounded=0;orthogonalLoop=1;jettySize=auto;html=1;" parent="1" source="VqD7DIqnFLghqxYBGj-M-2" target="VqD7DIqnFLghqxYBGj-M-6" edge="1">
          <mxGeometry relative="1" as="geometry">
            <Array as="points">
              <mxPoint x="470" y="210" />
            </Array>
          </mxGeometry>
        </mxCell>
        <mxCell id="VqD7DIqnFLghqxYBGj-M-16" style="edgeStyle=orthogonalEdgeStyle;rounded=0;orthogonalLoop=1;jettySize=auto;html=1;" parent="1" source="VqD7DIqnFLghqxYBGj-M-2" target="VqD7DIqnFLghqxYBGj-M-8" edge="1">
          <mxGeometry relative="1" as="geometry">
            <Array as="points">
              <mxPoint x="600" y="250" />
              <mxPoint x="600" y="250" />
            </Array>
          </mxGeometry>
        </mxCell>
        <mxCell id="VqD7DIqnFLghqxYBGj-M-17" style="edgeStyle=orthogonalEdgeStyle;rounded=0;orthogonalLoop=1;jettySize=auto;html=1;entryX=0.5;entryY=0;entryDx=0;entryDy=0;" parent="1" source="VqD7DIqnFLghqxYBGj-M-2" target="VqD7DIqnFLghqxYBGj-M-7" edge="1">
          <mxGeometry relative="1" as="geometry" />
        </mxCell>
        <mxCell id="VqD7DIqnFLghqxYBGj-M-2" value="Pack&lt;br&gt;animals" style="rounded=1;whiteSpace=wrap;html=1;" parent="1" vertex="1">
          <mxGeometry x="520" y="180" width="120" height="60" as="geometry" />
        </mxCell>
        <mxCell id="VqD7DIqnFLghqxYBGj-M-3" value="Cats" style="rounded=0;whiteSpace=wrap;html=1;" parent="1" vertex="1">
          <mxGeometry y="300" width="130" height="60" as="geometry" />
        </mxCell>
        <mxCell id="VqD7DIqnFLghqxYBGj-M-4" value="Dogs" style="rounded=0;whiteSpace=wrap;html=1;" parent="1" vertex="1">
          <mxGeometry x="140" y="300" width="120" height="60" as="geometry" />
        </mxCell>
        <mxCell id="VqD7DIqnFLghqxYBGj-M-5" value="Hamsters" style="rounded=0;whiteSpace=wrap;html=1;" parent="1" vertex="1">
          <mxGeometry x="270" y="300" width="120" height="60" as="geometry" />
        </mxCell>
        <mxCell id="VqD7DIqnFLghqxYBGj-M-6" value="Horses" style="rounded=0;whiteSpace=wrap;html=1;" parent="1" vertex="1">
          <mxGeometry x="410" y="300" width="120" height="60" as="geometry" />
        </mxCell>
        <mxCell id="VqD7DIqnFLghqxYBGj-M-7" value="Donkeys" style="rounded=0;whiteSpace=wrap;html=1;" parent="1" vertex="1">
          <mxGeometry x="680" y="300" width="120" height="60" as="geometry" />
        </mxCell>
        <mxCell id="VqD7DIqnFLghqxYBGj-M-8" value="Camels" style="rounded=0;whiteSpace=wrap;html=1;" parent="1" vertex="1">
          <mxGeometry x="540" y="300" width="120" height="60" as="geometry" />
        </mxCell>
        <mxCell id="VqD7DIqnFLghqxYBGj-M-13" style="edgeStyle=orthogonalEdgeStyle;rounded=0;orthogonalLoop=1;jettySize=auto;html=1;entryX=0.667;entryY=0;entryDx=0;entryDy=0;entryPerimeter=0;" parent="1" source="VqD7DIqnFLghqxYBGj-M-1" target="VqD7DIqnFLghqxYBGj-M-4" edge="1">
          <mxGeometry relative="1" as="geometry" />
        </mxCell>
        <mxCell id="mBUGuxQ8w9Ehl2TEk1GD-2" style="edgeStyle=none;curved=1;rounded=0;orthogonalLoop=1;jettySize=auto;html=1;entryX=0.5;entryY=0;entryDx=0;entryDy=0;fontSize=12;startSize=8;endSize=8;" edge="1" parent="1" source="mBUGuxQ8w9Ehl2TEk1GD-1" target="VqD7DIqnFLghqxYBGj-M-2">
          <mxGeometry relative="1" as="geometry" />
        </mxCell>
        <mxCell id="mBUGuxQ8w9Ehl2TEk1GD-3" style="edgeStyle=none;curved=1;rounded=0;orthogonalLoop=1;jettySize=auto;html=1;entryX=0.5;entryY=0;entryDx=0;entryDy=0;fontSize=12;startSize=8;endSize=8;" edge="1" parent="1" source="mBUGuxQ8w9Ehl2TEk1GD-1" target="VqD7DIqnFLghqxYBGj-M-1">
          <mxGeometry relative="1" as="geometry" />
        </mxCell>
        <mxCell id="mBUGuxQ8w9Ehl2TEk1GD-1" value="Animals" style="ellipse;whiteSpace=wrap;html=1;" vertex="1" parent="1">
          <mxGeometry x="340" y="50" width="120" height="80" as="geometry" />
        </mxCell>
      </root>
    </mxGraphModel>
  </diagram>
</mxfile>
